<svg xmlns='http://www.w3.org/2000/svg' style='display: block; height: 0; width: 0'>
    <symbol id='logo-git' viewBox='0 0 41 41'>
        <path d="M7.999 0C3.582 0 0 3.596 0 8.032a8.031 8.031 0 0 0 5.472 7.621c.4.074.546-.174.546-.387 0-.191-.007-.696-.011-1.366-2.225.485-2.695-1.077-2.695-1.077-.363-.928-.888-1.175-.888-1.175-.727-.498.054-.488.054-.488.803.057 1.225.828 1.225.828.714 1.227 1.873.873 2.329.667.072-.519.279-.873.508-1.074-1.776-.203-3.644-.892-3.644-3.969 0-.877.312-1.594.824-2.156-.083-.203-.357-1.02.078-2.125 0 0 .672-.216 2.2.823a7.633 7.633 0 0 1 2.003-.27 7.65 7.65 0 0 1 2.003.271c1.527-1.039 2.198-.823 2.198-.823.436 1.106.162 1.922.08 2.125.513.562.822 1.279.822 2.156 0 3.085-1.87 3.764-3.652 3.963.287.248.543.738.543 1.487 0 1.074-.01 1.94-.01 2.203 0 .215.144.465.55.386A8.032 8.032 0 0 0 16 8.032C16 3.596 12.418 0 7.999 0z"/>
    </symbol>

    <symbol id='icon-search' viewBox='0 0 24 24'>
        <path d="M21.71 20.29 18 16.61A9 9 0 1 0 16.61 18l3.68 3.68a1 1 0 0 0 1.42 0 1 1 0 0 0 0-1.39zM4 11a7 7 0 1 1 7 7 7 7 0 0 1-7-7z" data-name="52 Find"/>
    </symbol>

    <symbol id='icon-followers' viewBox='0 0 48 48'>
        <path fill="#808080" fill-rule="evenodd" d="M17 24c3.867 0 7-3.133 7-7s-3.133-7-7-7-7 3.133-7 7 3.133 7 7 7zm5-7c0 2.763-2.237 5-5 5s-5-2.237-5-5 2.237-5 5-5 5 2.237 5 5zM4 38v-5.6c0-4.256 8.661-6.4 13-6.4 2.886 0 7.685.949 10.575 2.837C29.635 28.28 31.894 28 33.5 28c1.858 0 4.351.374 6.41 1.13 1.026.378 2.009.874 2.752 1.516.749.647 1.338 1.522 1.338 2.62V38H4zm2-5.6c0-.317.146-.751.766-1.315.633-.576 1.607-1.134 2.84-1.62C12.077 28.49 15.077 28 17 28c1.923 0 4.924.49 7.393 1.465 1.234.486 2.208 1.044 2.84 1.62.621.564.767.998.767 1.315V36H6v-3.6zm23.353-1.93c1.513-.313 3.03-.47 4.147-.47 1.647 0 3.903.34 5.72 1.008.909.334 1.644.728 2.135 1.152.485.419.645.787.645 1.107V36H30v-3.6c0-.7-.235-1.345-.647-1.93zM39 20.5c0 3.039-2.461 5.5-5.5 5.5a5.499 5.499 0 0 1-5.5-5.5c0-3.039 2.461-5.5 5.5-5.5s5.5 2.461 5.5 5.5zM33.5 24c1.934 0 3.5-1.566 3.5-3.5S35.434 17 33.5 17a3.498 3.498 0 0 0-3.5 3.5c0 1.934 1.566 3.5 3.5 3.5z" clip-rule="evenodd"/>
    </symbol>

    <symbol id='icon-following' viewBox='0 0 24 24'>
        <path fill="#808080" d="M16.5 6.6c0-2.4-2-4.4-4.5-4.4s-4.5 2-4.5 4.4C7.5 9 9.5 11 12 11s4.5-2 4.5-4.4zm-7 0c0-1.3 1.1-2.4 2.5-2.4s2.5 1.1 2.5 2.4S13.4 9 12 9 9.5 7.9 9.5 6.6zm-4.9 9.7-.5 1.9c-.3.9-.1 1.9.5 2.7C5.2 21.6 6 22 7 22h10c.9 0 1.8-.4 2.3-1.2.6-.8.8-1.8.5-2.7l-.5-1.9c-.6-2.5-2.8-4.2-5.3-4.2h-4c-2.5 0-4.7 1.7-5.4 4.3zM6 18.7l.5-1.9C7 15.1 8.4 14 10 14h4c1.6 0 3 1.1 3.5 2.8l.5 1.9c.1.3 0 .7-.2 1-.1.1-.4.3-.8.3H7c-.4 0-.6-.2-.7-.4-.3-.2-.4-.6-.3-.9z"/>
    </symbol>
</svg>