<svg xmlns='http://www.w3.org/2000/svg' style='display: block; height: 0; width: 0'>
    <symbol id='logo-git'  viewBox="0 0 30 30">
        <path d="M15,3C8.373,3,3,8.373,3,15c0,5.623,3.872,10.328,9.092,11.63C12.036,26.468,12,26.28,12,26.047v-2.051 c-0.487,0-1.303,0-1.508,0c-0.821,0-1.551-0.353-1.905-1.009c-0.393-0.729-0.461-1.844-1.435-2.526 c-0.289-0.227-0.069-0.486,0.264-0.451c0.615,0.174,1.125,0.596,1.605,1.222c0.478,0.627,0.703,0.769,1.596,0.769 c0.433,0,1.081-0.025,1.691-0.121c0.328-0.833,0.895-1.6,1.588-1.962c-3.996-0.411-5.903-2.399-5.903-5.098 c0-1.162,0.495-2.286,1.336-3.233C9.053,10.647,8.706,8.73,9.435,8c1.798,0,2.885,1.166,3.146,1.481C13.477,9.174,14.461,9,15.495,9 c1.036,0,2.024,0.174,2.922,0.483C18.675,9.17,19.763,8,21.565,8c0.732,0.731,0.381,2.656,0.102,3.594 c0.836,0.945,1.328,2.066,1.328,3.226c0,2.697-1.904,4.684-5.894,5.097C18.199,20.49,19,22.1,19,23.313v2.734 c0,0.104-0.023,0.179-0.035,0.268C23.641,24.676,27,20.236,27,15C27,8.373,21.627,3,15,3z"/>
    </symbol>

    <symbol id='icon-search' viewBox='0 0 24 24'>
        <path d="M21.71 20.29 18 16.61A9 9 0 1 0 16.61 18l3.68 3.68a1 1 0 0 0 1.42 0 1 1 0 0 0 0-1.39zM4 11a7 7 0 1 1 7 7 7 7 0 0 1-7-7z" data-name="52 Find"/>
    </symbol>

    <symbol id='icon-followers' viewBox='0 0 48 48'>
        <path fill="#808080" fill-rule="evenodd" d="M17 24c3.867 0 7-3.133 7-7s-3.133-7-7-7-7 3.133-7 7 3.133 7 7 7zm5-7c0 2.763-2.237 5-5 5s-5-2.237-5-5 2.237-5 5-5 5 2.237 5 5zM4 38v-5.6c0-4.256 8.661-6.4 13-6.4 2.886 0 7.685.949 10.575 2.837C29.635 28.28 31.894 28 33.5 28c1.858 0 4.351.374 6.41 1.13 1.026.378 2.009.874 2.752 1.516.749.647 1.338 1.522 1.338 2.62V38H4zm2-5.6c0-.317.146-.751.766-1.315.633-.576 1.607-1.134 2.84-1.62C12.077 28.49 15.077 28 17 28c1.923 0 4.924.49 7.393 1.465 1.234.486 2.208 1.044 2.84 1.62.621.564.767.998.767 1.315V36H6v-3.6zm23.353-1.93c1.513-.313 3.03-.47 4.147-.47 1.647 0 3.903.34 5.72 1.008.909.334 1.644.728 2.135 1.152.485.419.645.787.645 1.107V36H30v-3.6c0-.7-.235-1.345-.647-1.93zM39 20.5c0 3.039-2.461 5.5-5.5 5.5a5.499 5.499 0 0 1-5.5-5.5c0-3.039 2.461-5.5 5.5-5.5s5.5 2.461 5.5 5.5zM33.5 24c1.934 0 3.5-1.566 3.5-3.5S35.434 17 33.5 17a3.498 3.498 0 0 0-3.5 3.5c0 1.934 1.566 3.5 3.5 3.5z" clip-rule="evenodd"/>
    </symbol>

    <symbol id='icon-following' viewBox='0 0 24 24'>
        <path fill="#808080" d="M16.5 6.6c0-2.4-2-4.4-4.5-4.4s-4.5 2-4.5 4.4C7.5 9 9.5 11 12 11s4.5-2 4.5-4.4zm-7 0c0-1.3 1.1-2.4 2.5-2.4s2.5 1.1 2.5 2.4S13.4 9 12 9 9.5 7.9 9.5 6.6zm-4.9 9.7-.5 1.9c-.3.9-.1 1.9.5 2.7C5.2 21.6 6 22 7 22h10c.9 0 1.8-.4 2.3-1.2.6-.8.8-1.8.5-2.7l-.5-1.9c-.6-2.5-2.8-4.2-5.3-4.2h-4c-2.5 0-4.7 1.7-5.4 4.3zM6 18.7l.5-1.9C7 15.1 8.4 14 10 14h4c1.6 0 3 1.1 3.5 2.8l.5 1.9c.1.3 0 .7-.2 1-.1.1-.4.3-.8.3H7c-.4 0-.6-.2-.7-.4-.3-.2-.4-.6-.3-.9z"/>
    </symbol>
</svg>